<?xml version="1.0" encoding="UTF-8" standalone="no"?>
<svg
   height="800"
   width="1200"
   viewBox="-39.687495 -10.0772 343.95829 60.4632"
   version="1.1"
   id="svg3"
   sodipodi:docname="AndroidOS.svg"
   xmlns:inkscape="http://www.inkscape.org/namespaces/inkscape"
   xmlns:sodipodi="http://sodipodi.sourceforge.net/DTD/sodipodi-0.dtd"
   xmlns="http://www.w3.org/2000/svg"
   xmlns:svg="http://www.w3.org/2000/svg">
  <defs
     id="defs3" />
  <sodipodi:namedview
     id="namedview3"
     pagecolor="#ffffff"
     bordercolor="#000000"
     borderopacity="0.25"
     inkscape:showpageshadow="2"
     inkscape:pageopacity="0.0"
     inkscape:pagecheckerboard="0"
     inkscape:deskcolor="#d1d1d1" />
  <path
     d="m 246.5505,12.1788 5.8423,-10.1205 c 0.3297,-0.5674 0.1303,-1.288 -0.4294,-1.6177 -0.5597,-0.3297 -1.288,-0.138 -1.61,0.4293 l -5.919,10.2508 c -4.5159,-2.0624 -9.599,-3.2125 -15.0657,-3.2125 -5.4666,0 -10.5498,1.1501 -15.0657,3.2125 L 208.384,0.87 a 1.1803,1.1803 0 0 0 -1.6177,-0.4293 1.1802,1.1802 0 0 0 -0.4293,1.6177 l 5.8422,10.1205 c -10.0744,5.4589 -16.898,15.656 -18.0251,27.5936 h 70.4292 C 263.4563,27.8349 256.6326,17.6378 246.5505,12.1789 Z M 213.199,29.8819 c -1.633,0 -2.9518,-1.3264 -2.9518,-2.9518 0,-1.633 1.3264,-2.9518 2.9518,-2.9518 1.633,0 2.9518,1.3264 2.9518,2.9518 0.008,1.6254 -1.3187,2.9518 -2.9518,2.9518 z m 32.3318,0 c -1.633,0 -2.9518,-1.3264 -2.9518,-2.9518 0,-1.633 1.3264,-2.9518 2.9518,-2.9518 1.6331,0 2.9518,1.3264 2.9518,2.9518 0.008,1.6254 -1.3187,2.9518 -2.9518,2.9518 z"
     fill="#32de84"
     id="path1" />
  <g
     transform="matrix(0.9073,0,0,0.9073,283.9893,-349.6734)"
     id="g3">
    <path
       d="m -299.0361,399.581 c -6.8857,0 -13.966,5.5177 -13.966,15.1757 0,8.8292 6.2253,15.0656 13.966,15.0656 6.3896,0 9.2373,-4.2888 9.2373,-4.2888 v 1.8695 c 0,0.8836 0.8354,1.8694 1.8695,1.8694 h 4.6186 V 400.241 h -6.4881 v 3.684 c 0,0 -2.8716,-4.3438 -9.2373,-4.3438 z m 1.1557,5.9364 c 5.6684,0 8.6417,4.9851 8.6417,9.2371 0,4.736 -3.5303,9.2339 -8.6297,9.234 -4.2627,0 -8.5328,-3.4525 -8.5328,-9.2965 0,-5.2753 3.6747,-9.1746 8.5208,-9.1746 z m 23.5871,23.7551 c -0.9968,0 -1.8695,-0.715 -1.8695,-1.8695 v -27.162 h 6.4882 v 3.5926 c 1.4702,-2.2099 4.3425,-4.2613 8.7513,-4.2613 7.2059,0 11.043,5.7442 11.043,11.1157 v 18.5846 h -4.5088 c -1.1822,0 -1.9794,-0.9897 -1.9794,-1.9794 v -15.1756 c 0,-2.9774 -1.8242,-6.5934 -6.0431,-6.5934 -4.5524,0 -7.263,4.3023 -7.263,8.3528 v 15.3956 z m 43.3274,-29.6915 c -6.8856,0 -13.9659,5.5177 -13.9659,15.1757 0,8.8292 6.2252,15.0656 13.966,15.0656 6.3895,0 9.2373,-4.2888 9.2373,-4.2888 v 1.8695 c 0,0.8836 0.8354,1.8694 1.8694,1.8694 h 4.6187 v -43.5473 h -6.4881 v 18.1997 c 0,0 -2.8716,-4.3437 -9.2374,-4.3437 z m 1.1558,5.9364 c 5.6684,0 8.6417,4.9851 8.6417,9.2371 0,4.736 -3.5303,9.2339 -8.6297,9.234 -4.2628,0 -8.5328,-3.4525 -8.5328,-9.2965 0,-5.2753 3.6746,-9.1746 8.5208,-9.1746 z m 23.5871,23.7551 c -0.9968,0 -1.8695,-0.715 -1.8695,-1.8695 v -27.162 h 6.4881 v 4.8386 c 1.1168,-2.7106 3.5267,-5.1685 7.8078,-5.1685 1.1934,0 2.3093,0.22 2.3093,0.22 v 6.708 c 0,0 -1.3934,-0.5499 -3.0791,-0.5499 -4.5523,0 -7.038,4.3023 -7.038,8.3528 v 14.6306 z m 54.1043,0 c -0.9968,0 -1.8695,-0.715 -1.8695,-1.8695 v -27.162 h 6.4882 v 29.0316 z m 23.6432,-29.6915 c -6.8857,0 -13.966,5.5177 -13.966,15.1757 0,8.8292 6.2252,15.0656 13.966,15.0656 6.3895,0 9.2373,-4.2888 9.2373,-4.2888 v 1.8695 c 0,0.8836 0.8354,1.8694 1.8694,1.8694 h 4.6187 v -43.5473 h -6.4881 v 18.1997 c 0,0 -2.8716,-4.3437 -9.2373,-4.3437 z m 1.1557,5.9364 c 5.6684,0 8.6417,4.9851 8.6417,9.2371 0,4.736 -3.5303,9.2339 -8.6297,9.234 -4.2628,0 -8.5328,-3.4525 -8.5328,-9.2965 0,-5.2753 3.6746,-9.1746 8.5208,-9.1746 z"
       id="path2" />
    <circle
       cx="-150.7952"
       cy="389.6879"
       r="4.2912998"
       id="circle2" />
    <path
       d="m -174.3765,399.5714 c -7.2111,0 -15.1337,5.3828 -15.1337,15.1337 0,8.8857 6.7482,15.1183 15.118,15.1183 10.315,0 15.3517,-8.2922 15.3517,-15.062 0,-8.3072 -6.4856,-15.19 -15.336,-15.19 z m 0.0236,6.059 c 4.9867,0 8.7064,4.0191 8.7064,9.093 0,5.1618 -3.9486,9.145 -8.6916,9.145 -4.4028,0 -8.6827,-3.583 -8.6827,-9.0582 0,-5.5665 4.0706,-9.1798 8.6679,-9.1798 z"
       id="path3" />
  </g>
</svg>
